<?xml version="1.0" encoding="utf-8"?>
<!-- Generator: Adobe Illustrator 20.1.0, SVG Export Plug-In . SVG Version: 6.00 Build 0)  -->
<svg version="1.1" id="Layer_1" xmlns="http://www.w3.org/2000/svg" xmlns:xlink="http://www.w3.org/1999/xlink" x="0px" y="0px"
	 viewBox="0 0 1700 500" style="enable-background:new 0 0 1700 500;" xml:space="preserve">
<style type="text/css">
	.st0{fill:none;}
	.st1{fill:#E6E7E8;}
	.st2{font-family:'Somatic-Rounded';}
	.st3{font-size:338.3324px;}
	.st4{fill:#FFFFFF;}
	.st5{fill:url(#SVGID_1_);}
	.st6{fill:url(#SVGID_2_);}
	.st7{fill:url(#SVGID_3_);}
	.st8{fill:url(#SVGID_4_);}
	.st9{opacity:0.1;fill:#1E1E1E;}
	.st10{opacity:0.1;fill:#231F20;}
	.st11{opacity:0.1;fill:#00AEEF;}
</style>
<rect x="455.8" y="169.2" class="st0" width="1660.2" height="675.8"/>
<text transform="matrix(1 0 0 1 455.7809 425.9759)" class="st1 st2 st3">nikiwa..</text>
<rect x="464.8" y="169.2" class="st0" width="1660.2" height="675.8"/>
<text transform="matrix(1 0 0 1 464.775 425.9759)" class="st4 st2 st3">nikiwa..</text>
<linearGradient id="SVGID_1_" gradientUnits="userSpaceOnUse" x1="310.3311" y1="-131.6704" x2="165.2243" y2="208.6532">
	<stop  offset="0" style="stop-color:#E9F7FE"/>
	<stop  offset="0.483" style="stop-color:#ECF8FE"/>
	<stop  offset="0.7971" style="stop-color:#F4FBFF"/>
	<stop  offset="1" style="stop-color:#FFFFFF"/>
</linearGradient>
<path class="st5" d="M256,74.8L226.6,150c0,0-33.7,70.5-65.2,137.7c-63.4,6.5-87.6,50.9-89.5,54.6L197.2,71.5
	c7.3-20,26.4-20.3,26.4-20.3c10.3-0.8,17.7,4.3,17.7,4.3C251.7,62,256,74.8,256,74.8z"/>
<linearGradient id="SVGID_2_" gradientUnits="userSpaceOnUse" x1="241.0702" y1="107.4585" x2="396.685" y2="431.1613">
	<stop  offset="0" style="stop-color:#E1F4FD"/>
	<stop  offset="0.5728" style="stop-color:#E3F5FC"/>
	<stop  offset="0.7791" style="stop-color:#EAF7FA"/>
	<stop  offset="0.9257" style="stop-color:#F5FBF7"/>
	<stop  offset="1" style="stop-color:#FFFEF4"/>
</linearGradient>
<path class="st6" d="M308.5,313.7L226.6,150L256,74.8l117.6,235.8C351.6,316,328.4,315.9,308.5,313.7z"/>
<linearGradient id="SVGID_3_" gradientUnits="userSpaceOnUse" x1="49.8471" y1="348.9944" x2="433.9441" y2="348.9944">
	<stop  offset="0" style="stop-color:#E9F7FE"/>
	<stop  offset="1" style="stop-color:#FFFFFF"/>
</linearGradient>
<path class="st7" d="M433.2,282.7c-1,9-3,17.8-5.9,26.4c-5.2,14.9-14.9,30.5-29.3,38.1c-1.6,0.8-3.2,1.6-4.9,2.2
	c-0.2,0.1-0.4,0.1-0.6,0.2c-3.5,1.3-7.1,2.3-10.7,3.2c-15.2,3.9-30.7,7-46.5,9c0,0,0,0,0,0c-37.9,5-76.9,4.2-113.8-4.3
	c-1.4-0.3-2.8-0.6-4.2-0.9c-3.8-0.7-7.6-1.2-11.4-1.6c-5.5-0.6-11-0.9-16.5-0.9c-6.5,0-13,0.3-19.5,1.2c-7,0.9-13.8,2.5-20.5,4.8
	c-10.8,3.8-22.4,9.7-29.4,19.1c-4.4,6-6.8,13.2-9.5,19.9c-0.5,1.2-1,2.5-1.5,3.8c-12.9,34.1-40.8,21.2-40.8,21.2
	c-26.6-12.5-16.5-38.2-16.5-38.2l20.1-43.4c0,0,0-0.1,0.1-0.2c0,0,0-0.1,0-0.1c1.9-3.6,26.1-48.1,89.5-54.6
	c24.7-2.5,49.6,1.2,73.3,8c13.6,3.9,26.8,9.1,40.6,12.3c14.2,3.3,28.7,5.5,43.3,6.6c18.4,1.3,37.1,0.4,55-4
	c23-5.6,44.7-17.3,60.3-39.1C432.7,273.3,433.5,280.5,433.2,282.7z"/>
<linearGradient id="SVGID_4_" gradientUnits="userSpaceOnUse" x1="371.3861" y1="373.9467" x2="423.7321" y2="477.3441">
	<stop  offset="0" style="stop-color:#E4F5FD"/>
	<stop  offset="1.046336e-02" style="stop-color:#E4F5FD"/>
	<stop  offset="0.5978" style="stop-color:#F8FCFA"/>
	<stop  offset="1" style="stop-color:#FFFEF9"/>
</linearGradient>
<path class="st8" d="M396.7,422.7c-25.7,12.7-39.7-11.5-39.7-11.5l-25-49c1.1-0.1,2.2-0.3,3.3-0.4c0,0,0,0,0,0
	c15.7-2.1,31.3-5.1,46.5-9c3.6-0.9,7.2-1.9,10.7-3.2l18.7,36.6C419.4,412.7,396.7,422.7,396.7,422.7z"/>
<polygon class="st9" points="256,74.8 236.2,169.2 226.6,150 "/>
<path class="st10" d="M71.9,342.2c0,0,15.2-53.4,92.8-61.6l-3.3,7.1C161.4,287.7,103.8,290.4,71.9,342.2z"/>
<path class="st11" d="M77.8,349.7c0,0,58.6-85.5,148.8-44.3c20,9.2,41.2,16,62.6,20.9c11.1,2.5,22.3,4.4,33.7,5.1
	c16.8,1,33.8-0.7,49.6-6.5c-16.5,7.7-34.9,11.4-53.1,10.9c-22-0.7-43.1-7.5-63.8-14.3c-8.8-2.9-17.7-5.6-26.4-8.9
	c-0.1,0-0.2-0.1-0.3-0.1c-4.6-1.7-9.1-3.6-13.7-5.3C158.3,287.9,129.1,305.9,77.8,349.7z"/>
<path class="st10" d="M392.5,349.6l-55.8,21.9l-4.7-9.2C332,362.3,376.3,356.5,392.5,349.6z"/>
</svg>
